<mxfile host="Electron" modified="2023-10-05T18:42:21.755Z" agent="Mozilla/5.0 (Windows NT 10.0; Win64; x64) AppleWebKit/537.36 (KHTML, like Gecko) draw.io/22.0.2 Chrome/114.0.5735.289 Electron/25.8.4 Safari/537.36" etag="nf1HmknL8yEznwegDqqC" version="22.0.2" type="device">
  <diagram name="networking" id="xU_r3rcO1g7LZFFaFaic">
    <mxGraphModel dx="2245" dy="902" grid="1" gridSize="10" guides="1" tooltips="1" connect="1" arrows="1" fold="1" page="1" pageScale="1" pageWidth="827" pageHeight="1169" math="0" shadow="0">
      <root>
        <mxCell id="0" />
        <mxCell id="1" parent="0" />
        <mxCell id="vP1Gtf31Bn04vz9j_0ZI-1" value="" style="shape=mxgraph.mockup.containers.marginRect;rectMarginTop=10;strokeWidth=1;dashed=0;rounded=1;arcSize=5;recursiveResize=0;html=1;whiteSpace=wrap;fillColor=none;" vertex="1" parent="1">
          <mxGeometry x="270" y="201" width="130" height="109" as="geometry" />
        </mxCell>
        <mxCell id="vP1Gtf31Bn04vz9j_0ZI-2" value="RabbitMQ" style="shape=rect;strokeWidth=1;dashed=0;rounded=1;arcSize=20;fontSize=17;spacing=2;spacingTop=-2;align=left;autosize=1;spacingLeft=4;resizeWidth=0;resizeHeight=0;perimeter=none;html=1;whiteSpace=wrap;" vertex="1" parent="vP1Gtf31Bn04vz9j_0ZI-1">
          <mxGeometry x="5" width="100" height="30" as="geometry" />
        </mxCell>
        <mxCell id="ZK_tPGRw6LqMYWSewLje-2" value="&lt;font color=&quot;#ffffff&quot;&gt;rabbitmq&lt;/font&gt;" style="sketch=0;outlineConnect=0;fontColor=#232F3E;gradientColor=none;fillColor=#ED7100;strokeColor=none;dashed=0;verticalLabelPosition=bottom;verticalAlign=top;align=center;html=1;fontSize=12;fontStyle=0;aspect=fixed;pointerEvents=1;shape=mxgraph.aws4.container_1;" parent="vP1Gtf31Bn04vz9j_0ZI-1" vertex="1">
          <mxGeometry x="40" y="49" width="48" height="31" as="geometry" />
        </mxCell>
        <mxCell id="vP1Gtf31Bn04vz9j_0ZI-10" value="" style="shape=mxgraph.mockup.containers.marginRect;rectMarginTop=10;strokeWidth=1;dashed=0;rounded=1;arcSize=5;recursiveResize=0;html=1;whiteSpace=wrap;fillColor=none;" vertex="1" parent="1">
          <mxGeometry x="520" y="120" width="150" height="260" as="geometry" />
        </mxCell>
        <mxCell id="vP1Gtf31Bn04vz9j_0ZI-11" value="RPGTracker" style="shape=rect;strokeWidth=1;dashed=0;rounded=1;arcSize=20;fontSize=17;spacing=2;spacingTop=-2;align=left;autosize=1;spacingLeft=4;resizeWidth=0;resizeHeight=0;perimeter=none;html=1;whiteSpace=wrap;" vertex="1" parent="vP1Gtf31Bn04vz9j_0ZI-10">
          <mxGeometry x="5" width="120" height="30" as="geometry" />
        </mxCell>
        <mxCell id="vP1Gtf31Bn04vz9j_0ZI-12" value="&lt;font color=&quot;#ffffff&quot;&gt;rpgtracker-core&lt;/font&gt;" style="sketch=0;outlineConnect=0;fontColor=#232F3E;gradientColor=none;fillColor=#ED7100;strokeColor=none;dashed=0;verticalLabelPosition=bottom;verticalAlign=top;align=center;html=1;fontSize=12;fontStyle=0;aspect=fixed;pointerEvents=1;shape=mxgraph.aws4.container_1;" vertex="1" parent="vP1Gtf31Bn04vz9j_0ZI-10">
          <mxGeometry x="51" y="49.5" width="48" height="31" as="geometry" />
        </mxCell>
        <mxCell id="vP1Gtf31Bn04vz9j_0ZI-13" value="&lt;font color=&quot;#ffffff&quot;&gt;rpgtracker-coc&lt;/font&gt;" style="sketch=0;outlineConnect=0;fontColor=#232F3E;gradientColor=none;fillColor=#ED7100;strokeColor=none;dashed=0;verticalLabelPosition=bottom;verticalAlign=top;align=center;html=1;fontSize=12;fontStyle=0;aspect=fixed;pointerEvents=1;shape=mxgraph.aws4.container_1;" vertex="1" parent="vP1Gtf31Bn04vz9j_0ZI-10">
          <mxGeometry x="51" y="119.5" width="48" height="31" as="geometry" />
        </mxCell>
        <mxCell id="vP1Gtf31Bn04vz9j_0ZI-26" value="&lt;font color=&quot;#ffffff&quot;&gt;rpgtracker-gateway&lt;/font&gt;" style="sketch=0;outlineConnect=0;fontColor=#232F3E;gradientColor=none;fillColor=#ED7100;strokeColor=none;dashed=0;verticalLabelPosition=bottom;verticalAlign=top;align=center;html=1;fontSize=12;fontStyle=0;aspect=fixed;pointerEvents=1;shape=mxgraph.aws4.container_1;" vertex="1" parent="vP1Gtf31Bn04vz9j_0ZI-10">
          <mxGeometry x="51" y="190.5" width="48" height="31" as="geometry" />
        </mxCell>
        <mxCell id="vP1Gtf31Bn04vz9j_0ZI-14" style="edgeStyle=orthogonalEdgeStyle;rounded=0;orthogonalLoop=1;jettySize=auto;html=1;" edge="1" parent="1" source="vP1Gtf31Bn04vz9j_0ZI-12" target="vP1Gtf31Bn04vz9j_0ZI-1">
          <mxGeometry relative="1" as="geometry">
            <Array as="points">
              <mxPoint x="480" y="185" />
              <mxPoint x="480" y="256" />
            </Array>
          </mxGeometry>
        </mxCell>
        <mxCell id="vP1Gtf31Bn04vz9j_0ZI-15" style="edgeStyle=orthogonalEdgeStyle;rounded=0;orthogonalLoop=1;jettySize=auto;html=1;" edge="1" parent="1" source="vP1Gtf31Bn04vz9j_0ZI-13" target="vP1Gtf31Bn04vz9j_0ZI-1">
          <mxGeometry relative="1" as="geometry">
            <Array as="points">
              <mxPoint x="510" y="256" />
              <mxPoint x="510" y="256" />
            </Array>
          </mxGeometry>
        </mxCell>
        <mxCell id="vP1Gtf31Bn04vz9j_0ZI-20" value="" style="shape=mxgraph.mockup.containers.marginRect;rectMarginTop=10;strokeWidth=1;dashed=0;rounded=1;arcSize=5;recursiveResize=0;html=1;whiteSpace=wrap;fillColor=none;" vertex="1" parent="1">
          <mxGeometry x="270" y="400" width="130" height="100" as="geometry" />
        </mxCell>
        <mxCell id="vP1Gtf31Bn04vz9j_0ZI-21" value="PGAdmin" style="shape=rect;strokeWidth=1;dashed=0;rounded=1;arcSize=20;fontSize=17;spacing=2;spacingTop=-2;align=left;autosize=1;spacingLeft=4;resizeWidth=0;resizeHeight=0;perimeter=none;html=1;whiteSpace=wrap;" vertex="1" parent="vP1Gtf31Bn04vz9j_0ZI-20">
          <mxGeometry x="5" width="100" height="30" as="geometry" />
        </mxCell>
        <mxCell id="vP1Gtf31Bn04vz9j_0ZI-23" value="&lt;font color=&quot;#ffffff&quot;&gt;pgadmin&lt;/font&gt;" style="sketch=0;outlineConnect=0;fontColor=#232F3E;gradientColor=none;fillColor=#ED7100;strokeColor=none;dashed=0;verticalLabelPosition=bottom;verticalAlign=top;align=center;html=1;fontSize=12;fontStyle=0;aspect=fixed;pointerEvents=1;shape=mxgraph.aws4.container_1;" vertex="1" parent="vP1Gtf31Bn04vz9j_0ZI-20">
          <mxGeometry x="41" y="40" width="48" height="31" as="geometry" />
        </mxCell>
        <mxCell id="vP1Gtf31Bn04vz9j_0ZI-24" style="edgeStyle=orthogonalEdgeStyle;rounded=0;orthogonalLoop=1;jettySize=auto;html=1;" edge="1" parent="1" source="vP1Gtf31Bn04vz9j_0ZI-16" target="vP1Gtf31Bn04vz9j_0ZI-20">
          <mxGeometry relative="1" as="geometry">
            <Array as="points">
              <mxPoint x="780" y="185" />
              <mxPoint x="780" y="450" />
            </Array>
          </mxGeometry>
        </mxCell>
        <mxCell id="vP1Gtf31Bn04vz9j_0ZI-25" style="edgeStyle=orthogonalEdgeStyle;rounded=0;orthogonalLoop=1;jettySize=auto;html=1;" edge="1" parent="1" source="vP1Gtf31Bn04vz9j_0ZI-17" target="vP1Gtf31Bn04vz9j_0ZI-20">
          <mxGeometry relative="1" as="geometry">
            <Array as="points">
              <mxPoint x="960" y="180" />
              <mxPoint x="960" y="255" />
              <mxPoint x="780" y="255" />
              <mxPoint x="780" y="450" />
            </Array>
          </mxGeometry>
        </mxCell>
        <mxCell id="vP1Gtf31Bn04vz9j_0ZI-27" value="" style="shape=mxgraph.mockup.containers.marginRect;rectMarginTop=10;strokeWidth=1;dashed=0;rounded=1;arcSize=5;recursiveResize=0;html=1;whiteSpace=wrap;fillColor=none;" vertex="1" parent="1">
          <mxGeometry x="30" y="120" width="170" height="190" as="geometry" />
        </mxCell>
        <mxCell id="vP1Gtf31Bn04vz9j_0ZI-28" value="Authenticator" style="shape=rect;strokeWidth=1;dashed=0;rounded=1;arcSize=20;fontSize=17;spacing=2;spacingTop=-2;align=left;autosize=1;spacingLeft=4;resizeWidth=0;resizeHeight=0;perimeter=none;html=1;whiteSpace=wrap;" vertex="1" parent="vP1Gtf31Bn04vz9j_0ZI-27">
          <mxGeometry x="5" width="130" height="30" as="geometry" />
        </mxCell>
        <mxCell id="vP1Gtf31Bn04vz9j_0ZI-29" value="&lt;font color=&quot;#ffffff&quot;&gt;keycloak&lt;/font&gt;" style="sketch=0;outlineConnect=0;fontColor=#232F3E;gradientColor=none;fillColor=#ED7100;strokeColor=none;dashed=0;verticalLabelPosition=bottom;verticalAlign=top;align=center;html=1;fontSize=12;fontStyle=0;aspect=fixed;pointerEvents=1;shape=mxgraph.aws4.container_1;" vertex="1" parent="vP1Gtf31Bn04vz9j_0ZI-27">
          <mxGeometry x="61" y="44" width="48" height="31" as="geometry" />
        </mxCell>
        <mxCell id="vP1Gtf31Bn04vz9j_0ZI-31" value="&lt;font color=&quot;#ffffff&quot;&gt;user-service&lt;/font&gt;" style="sketch=0;outlineConnect=0;fontColor=#232F3E;gradientColor=none;fillColor=#ED7100;strokeColor=none;dashed=0;verticalLabelPosition=bottom;verticalAlign=top;align=center;html=1;fontSize=12;fontStyle=0;aspect=fixed;pointerEvents=1;shape=mxgraph.aws4.container_1;" vertex="1" parent="vP1Gtf31Bn04vz9j_0ZI-27">
          <mxGeometry x="61" y="114.5" width="48" height="31" as="geometry" />
        </mxCell>
        <mxCell id="vP1Gtf31Bn04vz9j_0ZI-32" style="edgeStyle=orthogonalEdgeStyle;rounded=0;orthogonalLoop=1;jettySize=auto;html=1;" edge="1" parent="1" source="vP1Gtf31Bn04vz9j_0ZI-12" target="vP1Gtf31Bn04vz9j_0ZI-27">
          <mxGeometry relative="1" as="geometry">
            <Array as="points">
              <mxPoint x="480" y="185" />
              <mxPoint x="480" y="70" />
              <mxPoint x="115" y="70" />
            </Array>
          </mxGeometry>
        </mxCell>
        <mxCell id="vP1Gtf31Bn04vz9j_0ZI-34" style="edgeStyle=orthogonalEdgeStyle;rounded=0;orthogonalLoop=1;jettySize=auto;html=1;" edge="1" parent="1" source="vP1Gtf31Bn04vz9j_0ZI-13" target="vP1Gtf31Bn04vz9j_0ZI-27">
          <mxGeometry relative="1" as="geometry">
            <Array as="points">
              <mxPoint x="480" y="255" />
              <mxPoint x="480" y="70" />
              <mxPoint x="115" y="70" />
            </Array>
          </mxGeometry>
        </mxCell>
        <mxCell id="vP1Gtf31Bn04vz9j_0ZI-35" value="" style="shape=mxgraph.mockup.containers.marginRect;rectMarginTop=10;strokeWidth=1;dashed=0;rounded=1;arcSize=5;recursiveResize=0;html=1;whiteSpace=wrap;fillColor=none;" vertex="1" parent="1">
          <mxGeometry x="827" y="120" width="253" height="109" as="geometry" />
        </mxCell>
        <mxCell id="vP1Gtf31Bn04vz9j_0ZI-36" value="RPGTrackerDB" style="shape=rect;strokeWidth=1;dashed=0;rounded=1;arcSize=20;fontSize=17;spacing=2;spacingTop=-2;align=left;autosize=1;spacingLeft=4;resizeWidth=0;resizeHeight=0;perimeter=none;html=1;whiteSpace=wrap;" vertex="1" parent="vP1Gtf31Bn04vz9j_0ZI-35">
          <mxGeometry x="5" width="140" height="30" as="geometry" />
        </mxCell>
        <mxCell id="vP1Gtf31Bn04vz9j_0ZI-16" value="&lt;font color=&quot;#ffffff&quot;&gt;rpgtracker-core-db&lt;/font&gt;" style="sketch=0;outlineConnect=0;fontColor=#232F3E;gradientColor=none;fillColor=#ED7100;strokeColor=none;dashed=0;verticalLabelPosition=bottom;verticalAlign=top;align=center;html=1;fontSize=12;fontStyle=0;aspect=fixed;pointerEvents=1;shape=mxgraph.aws4.container_1;" vertex="1" parent="vP1Gtf31Bn04vz9j_0ZI-35">
          <mxGeometry x="43" y="44" width="48" height="31" as="geometry" />
        </mxCell>
        <mxCell id="vP1Gtf31Bn04vz9j_0ZI-17" value="&lt;font color=&quot;#ffffff&quot;&gt;rpgtracker-coc-db&lt;/font&gt;" style="sketch=0;outlineConnect=0;fontColor=#232F3E;gradientColor=none;fillColor=#ED7100;strokeColor=none;dashed=0;verticalLabelPosition=bottom;verticalAlign=top;align=center;html=1;fontSize=12;fontStyle=0;aspect=fixed;pointerEvents=1;shape=mxgraph.aws4.container_1;" vertex="1" parent="vP1Gtf31Bn04vz9j_0ZI-35">
          <mxGeometry x="163" y="44" width="48" height="31" as="geometry" />
        </mxCell>
        <mxCell id="vP1Gtf31Bn04vz9j_0ZI-38" style="edgeStyle=orthogonalEdgeStyle;rounded=0;orthogonalLoop=1;jettySize=auto;html=1;" edge="1" parent="1" source="vP1Gtf31Bn04vz9j_0ZI-12" target="vP1Gtf31Bn04vz9j_0ZI-35">
          <mxGeometry relative="1" as="geometry">
            <Array as="points">
              <mxPoint x="720" y="185" />
              <mxPoint x="720" y="174" />
            </Array>
          </mxGeometry>
        </mxCell>
        <mxCell id="vP1Gtf31Bn04vz9j_0ZI-39" style="edgeStyle=orthogonalEdgeStyle;rounded=0;orthogonalLoop=1;jettySize=auto;html=1;" edge="1" parent="1" source="vP1Gtf31Bn04vz9j_0ZI-13" target="vP1Gtf31Bn04vz9j_0ZI-35">
          <mxGeometry relative="1" as="geometry">
            <Array as="points">
              <mxPoint x="720" y="255" />
              <mxPoint x="720" y="175" />
            </Array>
          </mxGeometry>
        </mxCell>
        <mxCell id="vP1Gtf31Bn04vz9j_0ZI-40" value="" style="shape=mxgraph.mockup.containers.marginRect;rectMarginTop=10;strokeWidth=1;dashed=0;rounded=1;arcSize=5;recursiveResize=0;html=1;whiteSpace=wrap;fillColor=none;" vertex="1" parent="1">
          <mxGeometry x="-180" y="120" width="180" height="109" as="geometry" />
        </mxCell>
        <mxCell id="vP1Gtf31Bn04vz9j_0ZI-41" value="AuthenticatorDB" style="shape=rect;strokeWidth=1;dashed=0;rounded=1;arcSize=20;fontSize=17;spacing=2;spacingTop=-2;align=left;autosize=1;spacingLeft=4;resizeWidth=0;resizeHeight=0;perimeter=none;html=1;whiteSpace=wrap;" vertex="1" parent="vP1Gtf31Bn04vz9j_0ZI-40">
          <mxGeometry x="5" width="150" height="30" as="geometry" />
        </mxCell>
        <mxCell id="vP1Gtf31Bn04vz9j_0ZI-44" value="&lt;font color=&quot;#ffffff&quot;&gt;keycloak-db&lt;/font&gt;" style="sketch=0;outlineConnect=0;fontColor=#232F3E;gradientColor=none;fillColor=#ED7100;strokeColor=none;dashed=0;verticalLabelPosition=bottom;verticalAlign=top;align=center;html=1;fontSize=12;fontStyle=0;aspect=fixed;pointerEvents=1;shape=mxgraph.aws4.container_1;" vertex="1" parent="vP1Gtf31Bn04vz9j_0ZI-40">
          <mxGeometry x="66" y="44" width="48" height="31" as="geometry" />
        </mxCell>
        <mxCell id="vP1Gtf31Bn04vz9j_0ZI-45" style="edgeStyle=orthogonalEdgeStyle;rounded=0;orthogonalLoop=1;jettySize=auto;html=1;" edge="1" parent="1" source="vP1Gtf31Bn04vz9j_0ZI-44" target="vP1Gtf31Bn04vz9j_0ZI-20">
          <mxGeometry relative="1" as="geometry">
            <Array as="points">
              <mxPoint x="-30" y="179" />
              <mxPoint x="-30" y="450" />
            </Array>
          </mxGeometry>
        </mxCell>
        <mxCell id="vP1Gtf31Bn04vz9j_0ZI-46" style="edgeStyle=orthogonalEdgeStyle;rounded=0;orthogonalLoop=1;jettySize=auto;html=1;" edge="1" parent="1" source="vP1Gtf31Bn04vz9j_0ZI-29" target="vP1Gtf31Bn04vz9j_0ZI-40">
          <mxGeometry relative="1" as="geometry" />
        </mxCell>
        <mxCell id="vP1Gtf31Bn04vz9j_0ZI-47" style="edgeStyle=orthogonalEdgeStyle;rounded=0;orthogonalLoop=1;jettySize=auto;html=1;" edge="1" parent="1" source="vP1Gtf31Bn04vz9j_0ZI-31" target="vP1Gtf31Bn04vz9j_0ZI-1">
          <mxGeometry relative="1" as="geometry" />
        </mxCell>
      </root>
    </mxGraphModel>
  </diagram>
</mxfile>
